<svg width="59" height="51" viewBox="0 0 59 51" fill="none" xmlns="http://www.w3.org/2000/svg"><path d="M32.3594 50.2812H13.2969C13.0441 50.2812 12.8017 50.1808 12.6229 50.0021C12.4442 49.8233 12.3438 49.5809 12.3438 49.3281V16.9219C12.3438 16.6691 12.4442 16.4267 12.6229 16.2479C12.8017 16.0692 13.0441 15.9688 13.2969 15.9688H32.3594C32.6122 15.9688 32.8546 16.0692 33.0333 16.2479C33.2121 16.4267 33.3125 16.6691 33.3125 16.9219V49.3281C33.3125 49.5809 33.2121 49.8233 33.0333 50.0021C32.8546 50.1808 32.6122 50.2812 32.3594 50.2812ZM14.25 48.375H31.4062V17.875H14.25V48.375Z" fill="#353535"></path><path d="M32.3594 17.875H13.2969C12.5385 17.875 11.8112 17.5737 11.275 17.0375C10.7388 16.5013 10.4375 15.774 10.4375 15.0156C10.4375 14.2573 10.7388 13.53 11.275 12.9937C11.8112 12.4575 12.5385 12.1563 13.2969 12.1562H32.3594C33.1177 12.1563 33.845 12.4575 34.3813 12.9937C34.9175 13.53 35.2188 14.2573 35.2188 15.0156C35.2188 15.774 34.9175 16.5013 34.3813 17.0375C33.845 17.5737 33.1177 17.875 32.3594 17.875ZM13.2969 14.0625C13.0441 14.0625 12.8017 14.1629 12.6229 14.3417C12.4442 14.5204 12.3438 14.7628 12.3438 15.0156C12.3438 15.2684 12.4442 15.5108 12.6229 15.6896C12.8017 15.8683 13.0441 15.9688 13.2969 15.9688H32.3594C32.6122 15.9688 32.8546 15.8683 33.0333 15.6896C33.2121 15.5108 33.3125 15.2684 33.3125 15.0156C33.3125 14.7628 33.2121 14.5204 33.0333 14.3417C32.8546 14.1629 32.6122 14.0625 32.3594 14.0625H13.2969Z" fill="#353535"></path><path d="M26.6406 50.2812H19.0156C18.7628 50.2812 18.5204 50.1808 18.3417 50.0021C18.1629 49.8233 18.0625 49.5809 18.0625 49.3281V39.7969C18.0625 39.5441 18.1629 39.3017 18.3417 39.1229C18.5204 38.9442 18.7628 38.8438 19.0156 38.8438H26.6406C26.8934 38.8438 27.1358 38.9442 27.3146 39.1229C27.4933 39.3017 27.5938 39.5441 27.5938 39.7969V49.3281C27.5938 49.5809 27.4933 49.8233 27.3146 50.0021C27.1358 50.1808 26.8934 50.2812 26.6406 50.2812ZM19.9688 48.375H25.6875V40.75H19.9688V48.375Z" fill="#353535"></path><path d="M19.0156 21.6875H17.1094C16.8566 21.6875 16.6142 21.5871 16.4354 21.4083C16.2567 21.2296 16.1562 20.9872 16.1562 20.7344C16.1562 20.4816 16.2567 20.2392 16.4354 20.0604C16.6142 19.8817 16.8566 19.7812 17.1094 19.7812H19.0156C19.2684 19.7812 19.5108 19.8817 19.6896 20.0604C19.8683 20.2392 19.9688 20.4816 19.9688 20.7344C19.9688 20.9872 19.8683 21.2296 19.6896 21.4083C19.5108 21.5871 19.2684 21.6875 19.0156 21.6875Z" fill="#353535"></path><path d="M23.7812 21.6875H21.875C21.6222 21.6875 21.3798 21.5871 21.201 21.4083C21.0223 21.2296 20.9219 20.9872 20.9219 20.7344C20.9219 20.4816 21.0223 20.2392 21.201 20.0604C21.3798 19.8817 21.6222 19.7812 21.875 19.7812H23.7812C24.034 19.7812 24.2765 19.8817 24.4552 20.0604C24.634 20.2392 24.7344 20.4816 24.7344 20.7344C24.7344 20.9872 24.634 21.2296 24.4552 21.4083C24.2765 21.5871 24.034 21.6875 23.7812 21.6875Z" fill="#353535"></path><path d="M28.5469 21.6875H26.6406C26.3878 21.6875 26.1454 21.5871 25.9667 21.4083C25.7879 21.2296 25.6875 20.9872 25.6875 20.7344C25.6875 20.4816 25.7879 20.2392 25.9667 20.0604C26.1454 19.8817 26.3878 19.7812 26.6406 19.7812H28.5469C28.7997 19.7812 29.0421 19.8817 29.2208 20.0604C29.3996 20.2392 29.5 20.4816 29.5 20.7344C29.5 20.9872 29.3996 21.2296 29.2208 21.4083C29.0421 21.5871 28.7997 21.6875 28.5469 21.6875Z" fill="#353535"></path><path d="M19.0156 25.5H17.1094C16.8566 25.5 16.6142 25.3996 16.4354 25.2208C16.2567 25.0421 16.1562 24.7997 16.1562 24.5469C16.1562 24.2941 16.2567 24.0517 16.4354 23.8729C16.6142 23.6942 16.8566 23.5938 17.1094 23.5938H19.0156C19.2684 23.5938 19.5108 23.6942 19.6896 23.8729C19.8683 24.0517 19.9688 24.2941 19.9688 24.5469C19.9688 24.7997 19.8683 25.0421 19.6896 25.2208C19.5108 25.3996 19.2684 25.5 19.0156 25.5Z" fill="#353535"></path><path d="M23.7812 25.5H21.875C21.6222 25.5 21.3798 25.3996 21.201 25.2208C21.0223 25.0421 20.9219 24.7997 20.9219 24.5469C20.9219 24.2941 21.0223 24.0517 21.201 23.8729C21.3798 23.6942 21.6222 23.5938 21.875 23.5938H23.7812C24.034 23.5938 24.2765 23.6942 24.4552 23.8729C24.634 24.0517 24.7344 24.2941 24.7344 24.5469C24.7344 24.7997 24.634 25.0421 24.4552 25.2208C24.2765 25.3996 24.034 25.5 23.7812 25.5Z" fill="#353535"></path><path d="M28.5469 25.5H26.6406C26.3878 25.5 26.1454 25.3996 25.9667 25.2208C25.7879 25.0421 25.6875 24.7997 25.6875 24.5469C25.6875 24.2941 25.7879 24.0517 25.9667 23.8729C26.1454 23.6942 26.3878 23.5938 26.6406 23.5938H28.5469C28.7997 23.5938 29.0421 23.6942 29.2208 23.8729C29.3996 24.0517 29.5 24.2941 29.5 24.5469C29.5 24.7997 29.3996 25.0421 29.2208 25.2208C29.0421 25.3996 28.7997 25.5 28.5469 25.5Z" fill="#353535"></path><path d="M19.0156 29.3125H17.1094C16.8566 29.3125 16.6142 29.2121 16.4354 29.0333C16.2567 28.8546 16.1562 28.6122 16.1562 28.3594C16.1562 28.1066 16.2567 27.8642 16.4354 27.6854C16.6142 27.5067 16.8566 27.4062 17.1094 27.4062H19.0156C19.2684 27.4062 19.5108 27.5067 19.6896 27.6854C19.8683 27.8642 19.9688 28.1066 19.9688 28.3594C19.9688 28.6122 19.8683 28.8546 19.6896 29.0333C19.5108 29.2121 19.2684 29.3125 19.0156 29.3125Z" fill="#353535"></path><path d="M23.7812 29.3125H21.875C21.6222 29.3125 21.3798 29.2121 21.201 29.0333C21.0223 28.8546 20.9219 28.6122 20.9219 28.3594C20.9219 28.1066 21.0223 27.8642 21.201 27.6854C21.3798 27.5067 21.6222 27.4062 21.875 27.4062H23.7812C24.034 27.4062 24.2765 27.5067 24.4552 27.6854C24.634 27.8642 24.7344 28.1066 24.7344 28.3594C24.7344 28.6122 24.634 28.8546 24.4552 29.0333C24.2765 29.2121 24.034 29.3125 23.7812 29.3125Z" fill="#353535"></path><path d="M28.5469 29.3125H26.6406C26.3878 29.3125 26.1454 29.2121 25.9667 29.0333C25.7879 28.8546 25.6875 28.6122 25.6875 28.3594C25.6875 28.1066 25.7879 27.8642 25.9667 27.6854C26.1454 27.5067 26.3878 27.4062 26.6406 27.4062H28.5469C28.7997 27.4062 29.0421 27.5067 29.2208 27.6854C29.3996 27.8642 29.5 28.1066 29.5 28.3594C29.5 28.6122 29.3996 28.8546 29.2208 29.0333C29.0421 29.2121 28.7997 29.3125 28.5469 29.3125Z" fill="#353535"></path><path d="M19.0156 33.125H17.1094C16.8566 33.125 16.6142 33.0246 16.4354 32.8458C16.2567 32.6671 16.1562 32.4247 16.1562 32.1719C16.1562 31.9191 16.2567 31.6767 16.4354 31.4979C16.6142 31.3192 16.8566 31.2188 17.1094 31.2188H19.0156C19.2684 31.2188 19.5108 31.3192 19.6896 31.4979C19.8683 31.6767 19.9688 31.9191 19.9688 32.1719C19.9688 32.4247 19.8683 32.6671 19.6896 32.8458C19.5108 33.0246 19.2684 33.125 19.0156 33.125Z" fill="#353535"></path><path d="M23.7812 33.125H21.875C21.6222 33.125 21.3798 33.0246 21.201 32.8458C21.0223 32.6671 20.9219 32.4247 20.9219 32.1719C20.9219 31.9191 21.0223 31.6767 21.201 31.4979C21.3798 31.3192 21.6222 31.2188 21.875 31.2188H23.7812C24.034 31.2188 24.2765 31.3192 24.4552 31.4979C24.634 31.6767 24.7344 31.9191 24.7344 32.1719C24.7344 32.4247 24.634 32.6671 24.4552 32.8458C24.2765 33.0246 24.034 33.125 23.7812 33.125Z" fill="#353535"></path><path d="M28.5469 33.125H26.6406C26.3878 33.125 26.1454 33.0246 25.9667 32.8458C25.7879 32.6671 25.6875 32.4247 25.6875 32.1719C25.6875 31.9191 25.7879 31.6767 25.9667 31.4979C26.1454 31.3192 26.3878 31.2188 26.6406 31.2188H28.5469C28.7997 31.2188 29.0421 31.3192 29.2208 31.4979C29.3996 31.6767 29.5 31.9191 29.5 32.1719C29.5 32.4247 29.3996 32.6671 29.2208 32.8458C29.0421 33.0246 28.7997 33.125 28.5469 33.125Z" fill="#353535"></path><path d="M19.0156 36.9375H17.1094C16.8566 36.9375 16.6142 36.8371 16.4354 36.6583C16.2567 36.4796 16.1562 36.2372 16.1562 35.9844C16.1562 35.7316 16.2567 35.4892 16.4354 35.3104C16.6142 35.1317 16.8566 35.0312 17.1094 35.0312H19.0156C19.2684 35.0312 19.5108 35.1317 19.6896 35.3104C19.8683 35.4892 19.9688 35.7316 19.9688 35.9844C19.9688 36.2372 19.8683 36.4796 19.6896 36.6583C19.5108 36.8371 19.2684 36.9375 19.0156 36.9375Z" fill="#353535"></path><path d="M23.7812 36.9375H21.875C21.6222 36.9375 21.3798 36.8371 21.201 36.6583C21.0223 36.4796 20.9219 36.2372 20.9219 35.9844C20.9219 35.7316 21.0223 35.4892 21.201 35.3104C21.3798 35.1317 21.6222 35.0312 21.875 35.0312H23.7812C24.034 35.0312 24.2765 35.1317 24.4552 35.3104C24.634 35.4892 24.7344 35.7316 24.7344 35.9844C24.7344 36.2372 24.634 36.4796 24.4552 36.6583C24.2765 36.8371 24.034 36.9375 23.7812 36.9375Z" fill="#353535"></path><path d="M28.5469 36.9375H26.6406C26.3878 36.9375 26.1454 36.8371 25.9667 36.6583C25.7879 36.4796 25.6875 36.2372 25.6875 35.9844C25.6875 35.7316 25.7879 35.4892 25.9667 35.3104C26.1454 35.1317 26.3878 35.0312 26.6406 35.0312H28.5469C28.7997 35.0312 29.0421 35.1317 29.2208 35.3104C29.3996 35.4892 29.5 35.7316 29.5 35.9844C29.5 36.2372 29.3996 36.4796 29.2208 36.6583C29.0421 36.8371 28.7997 36.9375 28.5469 36.9375Z" fill="#353535"></path><path d="M46.6562 50.2812H27.5938C27.341 50.2812 27.0985 50.1808 26.9198 50.0021C26.741 49.8233 26.6406 49.5809 26.6406 49.3281C26.6406 49.0753 26.741 48.8329 26.9198 48.6542C27.0985 48.4754 27.341 48.375 27.5938 48.375H45.7031V6.4375H28.5469V13.1094C28.5469 13.3622 28.4465 13.6046 28.2677 13.7833C28.089 13.9621 27.8465 14.0625 27.5938 14.0625C27.341 14.0625 27.0985 13.9621 26.9198 13.7833C26.741 13.6046 26.6406 13.3622 26.6406 13.1094V5.48438C26.6406 5.23159 26.741 4.98916 26.9198 4.81041C27.0985 4.63167 27.341 4.53125 27.5938 4.53125H46.6562C46.909 4.53125 47.1515 4.63167 47.3302 4.81041C47.509 4.98916 47.6094 5.23159 47.6094 5.48438V49.3281C47.6094 49.5809 47.509 49.8233 47.3302 50.0021C47.1515 50.1808 46.909 50.2812 46.6562 50.2812Z" fill="#353535"></path><path d="M46.6562 6.4375H27.5938C26.8354 6.4375 26.1081 6.13625 25.5719 5.60001C25.0356 5.06377 24.7344 4.33648 24.7344 3.57812C24.7344 2.81977 25.0356 2.09248 25.5719 1.55624C26.1081 1.02 26.8354 0.71875 27.5938 0.71875H46.6562C47.4146 0.71875 48.1419 1.02 48.6781 1.55624C49.2144 2.09248 49.5156 2.81977 49.5156 3.57812C49.5156 4.33648 49.2144 5.06377 48.6781 5.60001C48.1419 6.13625 47.4146 6.4375 46.6562 6.4375ZM27.5938 2.625C27.341 2.625 27.0985 2.72542 26.9198 2.90416C26.741 3.08291 26.6406 3.32534 26.6406 3.57812C26.6406 3.83091 26.741 4.07334 26.9198 4.25209C27.0985 4.43083 27.341 4.53125 27.5938 4.53125H46.6562C46.909 4.53125 47.1515 4.43083 47.3302 4.25209C47.509 4.07334 47.6094 3.83091 47.6094 3.57812C47.6094 3.32534 47.509 3.08291 47.3302 2.90416C47.1515 2.72542 46.909 2.625 46.6562 2.625H27.5938Z" fill="#353535"></path><path d="M38.0781 21.6875H36.1719C35.9191 21.6875 35.6767 21.5871 35.4979 21.4083C35.3192 21.2296 35.2188 20.9872 35.2188 20.7344C35.2188 20.4816 35.3192 20.2392 35.4979 20.0604C35.6767 19.8817 35.9191 19.7812 36.1719 19.7812H38.0781C38.3309 19.7812 38.5733 19.8817 38.7521 20.0604C38.9308 20.2392 39.0312 20.4816 39.0312 20.7344C39.0312 20.9872 38.9308 21.2296 38.7521 21.4083C38.5733 21.5871 38.3309 21.6875 38.0781 21.6875Z" fill="#353535"></path><path d="M42.8438 21.6875H40.9375C40.6847 21.6875 40.4423 21.5871 40.2635 21.4083C40.0848 21.2296 39.9844 20.9872 39.9844 20.7344C39.9844 20.4816 40.0848 20.2392 40.2635 20.0604C40.4423 19.8817 40.6847 19.7812 40.9375 19.7812H42.8438C43.0965 19.7812 43.339 19.8817 43.5177 20.0604C43.6965 20.2392 43.7969 20.4816 43.7969 20.7344C43.7969 20.9872 43.6965 21.2296 43.5177 21.4083C43.339 21.5871 43.0965 21.6875 42.8438 21.6875Z" fill="#353535"></path><path d="M38.0781 17.875H36.1719C35.9191 17.875 35.6767 17.7746 35.4979 17.5958C35.3192 17.4171 35.2188 17.1747 35.2188 16.9219C35.2188 16.6691 35.3192 16.4267 35.4979 16.2479C35.6767 16.0692 35.9191 15.9688 36.1719 15.9688H38.0781C38.3309 15.9688 38.5733 16.0692 38.7521 16.2479C38.9308 16.4267 39.0312 16.6691 39.0312 16.9219C39.0312 17.1747 38.9308 17.4171 38.7521 17.5958C38.5733 17.7746 38.3309 17.875 38.0781 17.875Z" fill="#353535"></path><path d="M42.8438 17.875H40.9375C40.6847 17.875 40.4423 17.7746 40.2635 17.5958C40.0848 17.4171 39.9844 17.1747 39.9844 16.9219C39.9844 16.6691 40.0848 16.4267 40.2635 16.2479C40.4423 16.0692 40.6847 15.9688 40.9375 15.9688H42.8438C43.0965 15.9688 43.339 16.0692 43.5177 16.2479C43.6965 16.4267 43.7969 16.6691 43.7969 16.9219C43.7969 17.1747 43.6965 17.4171 43.5177 17.5958C43.339 17.7746 43.0965 17.875 42.8438 17.875Z" fill="#353535"></path><path d="M38.0781 14.0625H36.1719C35.9191 14.0625 35.6767 13.9621 35.4979 13.7833C35.3192 13.6046 35.2188 13.3622 35.2188 13.1094C35.2188 12.8566 35.3192 12.6142 35.4979 12.4354C35.6767 12.2567 35.9191 12.1562 36.1719 12.1562H38.0781C38.3309 12.1562 38.5733 12.2567 38.7521 12.4354C38.9308 12.6142 39.0312 12.8566 39.0312 13.1094C39.0312 13.3622 38.9308 13.6046 38.7521 13.7833C38.5733 13.9621 38.3309 14.0625 38.0781 14.0625Z" fill="#353535"></path><path d="M42.8438 14.0625H40.9375C40.6847 14.0625 40.4423 13.9621 40.2635 13.7833C40.0848 13.6046 39.9844 13.3622 39.9844 13.1094C39.9844 12.8566 40.0848 12.6142 40.2635 12.4354C40.4423 12.2567 40.6847 12.1562 40.9375 12.1562H42.8438C43.0965 12.1562 43.339 12.2567 43.5177 12.4354C43.6965 12.6142 43.7969 12.8566 43.7969 13.1094C43.7969 13.3622 43.6965 13.6046 43.5177 13.7833C43.339 13.9621 43.0965 14.0625 42.8438 14.0625Z" fill="#353535"></path><path d="M38.0781 10.25H36.1719C35.9191 10.25 35.6767 10.1496 35.4979 9.97084C35.3192 9.79209 35.2188 9.54966 35.2188 9.29688C35.2188 9.04409 35.3192 8.80166 35.4979 8.62291C35.6767 8.44417 35.9191 8.34375 36.1719 8.34375H38.0781C38.3309 8.34375 38.5733 8.44417 38.7521 8.62291C38.9308 8.80166 39.0312 9.04409 39.0312 9.29688C39.0312 9.54966 38.9308 9.79209 38.7521 9.97084C38.5733 10.1496 38.3309 10.25 38.0781 10.25Z" fill="#353535"></path><path d="M33.3125 10.25H31.4062C31.1535 10.25 30.911 10.1496 30.7323 9.97084C30.5535 9.79209 30.4531 9.54966 30.4531 9.29688C30.4531 9.04409 30.5535 8.80166 30.7323 8.62291C30.911 8.44417 31.1535 8.34375 31.4062 8.34375H33.3125C33.5653 8.34375 33.8077 8.44417 33.9865 8.62291C34.1652 8.80166 34.2656 9.04409 34.2656 9.29688C34.2656 9.54966 34.1652 9.79209 33.9865 9.97084C33.8077 10.1496 33.5653 10.25 33.3125 10.25Z" fill="#353535"></path><path d="M42.8438 10.25H40.9375C40.6847 10.25 40.4423 10.1496 40.2635 9.97084C40.0848 9.79209 39.9844 9.54966 39.9844 9.29688C39.9844 9.04409 40.0848 8.80166 40.2635 8.62291C40.4423 8.44417 40.6847 8.34375 40.9375 8.34375H42.8438C43.0965 8.34375 43.339 8.44417 43.5177 8.62291C43.6965 8.80166 43.7969 9.04409 43.7969 9.29688C43.7969 9.54966 43.6965 9.79209 43.5177 9.97084C43.339 10.1496 43.0965 10.25 42.8438 10.25Z" fill="#353535"></path><path d="M38.0781 25.5H36.1719C35.9191 25.5 35.6767 25.3996 35.4979 25.2208C35.3192 25.0421 35.2188 24.7997 35.2188 24.5469C35.2188 24.2941 35.3192 24.0517 35.4979 23.8729C35.6767 23.6942 35.9191 23.5938 36.1719 23.5938H38.0781C38.3309 23.5938 38.5733 23.6942 38.7521 23.8729C38.9308 24.0517 39.0312 24.2941 39.0312 24.5469C39.0312 24.7997 38.9308 25.0421 38.7521 25.2208C38.5733 25.3996 38.3309 25.5 38.0781 25.5Z" fill="#353535"></path><path d="M42.8438 25.5H40.9375C40.6847 25.5 40.4423 25.3996 40.2635 25.2208C40.0848 25.0421 39.9844 24.7997 39.9844 24.5469C39.9844 24.2941 40.0848 24.0517 40.2635 23.8729C40.4423 23.6942 40.6847 23.5938 40.9375 23.5938H42.8438C43.0965 23.5938 43.339 23.6942 43.5177 23.8729C43.6965 24.0517 43.7969 24.2941 43.7969 24.5469C43.7969 24.7997 43.6965 25.0421 43.5177 25.2208C43.339 25.3996 43.0965 25.5 42.8438 25.5Z" fill="#353535"></path><path d="M38.0781 29.3125H36.1719C35.9191 29.3125 35.6767 29.2121 35.4979 29.0333C35.3192 28.8546 35.2188 28.6122 35.2188 28.3594C35.2188 28.1066 35.3192 27.8642 35.4979 27.6854C35.6767 27.5067 35.9191 27.4062 36.1719 27.4062H38.0781C38.3309 27.4062 38.5733 27.5067 38.7521 27.6854C38.9308 27.8642 39.0312 28.1066 39.0312 28.3594C39.0312 28.6122 38.9308 28.8546 38.7521 29.0333C38.5733 29.2121 38.3309 29.3125 38.0781 29.3125Z" fill="#353535"></path><path d="M42.8438 29.3125H40.9375C40.6847 29.3125 40.4423 29.2121 40.2635 29.0333C40.0848 28.8546 39.9844 28.6122 39.9844 28.3594C39.9844 28.1066 40.0848 27.8642 40.2635 27.6854C40.4423 27.5067 40.6847 27.4062 40.9375 27.4062H42.8438C43.0965 27.4062 43.339 27.5067 43.5177 27.6854C43.6965 27.8642 43.7969 28.1066 43.7969 28.3594C43.7969 28.6122 43.6965 28.8546 43.5177 29.0333C43.339 29.2121 43.0965 29.3125 42.8438 29.3125Z" fill="#353535"></path><path d="M38.0781 33.125H36.1719C35.9191 33.125 35.6767 33.0246 35.4979 32.8458C35.3192 32.6671 35.2188 32.4247 35.2188 32.1719C35.2188 31.9191 35.3192 31.6767 35.4979 31.4979C35.6767 31.3192 35.9191 31.2188 36.1719 31.2188H38.0781C38.3309 31.2188 38.5733 31.3192 38.7521 31.4979C38.9308 31.6767 39.0312 31.9191 39.0312 32.1719C39.0312 32.4247 38.9308 32.6671 38.7521 32.8458C38.5733 33.0246 38.3309 33.125 38.0781 33.125Z" fill="#353535"></path><path d="M42.8438 33.125H40.9375C40.6847 33.125 40.4423 33.0246 40.2635 32.8458C40.0848 32.6671 39.9844 32.4247 39.9844 32.1719C39.9844 31.9191 40.0848 31.6767 40.2635 31.4979C40.4423 31.3192 40.6847 31.2188 40.9375 31.2188H42.8438C43.0965 31.2188 43.339 31.3192 43.5177 31.4979C43.6965 31.6767 43.7969 31.9191 43.7969 32.1719C43.7969 32.4247 43.6965 32.6671 43.5177 32.8458C43.339 33.0246 43.0965 33.125 42.8438 33.125Z" fill="#353535"></path><path d="M38.0781 36.9375H36.1719C35.9191 36.9375 35.6767 36.8371 35.4979 36.6583C35.3192 36.4796 35.2188 36.2372 35.2188 35.9844C35.2188 35.7316 35.3192 35.4892 35.4979 35.3104C35.6767 35.1317 35.9191 35.0312 36.1719 35.0312H38.0781C38.3309 35.0312 38.5733 35.1317 38.7521 35.3104C38.9308 35.4892 39.0312 35.7316 39.0312 35.9844C39.0312 36.2372 38.9308 36.4796 38.7521 36.6583C38.5733 36.8371 38.3309 36.9375 38.0781 36.9375Z" fill="#353535"></path><path d="M42.8438 36.9375H40.9375C40.6847 36.9375 40.4423 36.8371 40.2635 36.6583C40.0848 36.4796 39.9844 36.2372 39.9844 35.9844C39.9844 35.7316 40.0848 35.4892 40.2635 35.3104C40.4423 35.1317 40.6847 35.0312 40.9375 35.0312H42.8438C43.0965 35.0312 43.339 35.1317 43.5177 35.3104C43.6965 35.4892 43.7969 35.7316 43.7969 35.9844C43.7969 36.2372 43.6965 36.4796 43.5177 36.6583C43.339 36.8371 43.0965 36.9375 42.8438 36.9375Z" fill="#353535"></path><path d="M38.0781 40.75H36.1719C35.9191 40.75 35.6767 40.6496 35.4979 40.4708C35.3192 40.2921 35.2188 40.0497 35.2188 39.7969C35.2188 39.5441 35.3192 39.3017 35.4979 39.1229C35.6767 38.9442 35.9191 38.8438 36.1719 38.8438H38.0781C38.3309 38.8438 38.5733 38.9442 38.7521 39.1229C38.9308 39.3017 39.0312 39.5441 39.0312 39.7969C39.0312 40.0497 38.9308 40.2921 38.7521 40.4708C38.5733 40.6496 38.3309 40.75 38.0781 40.75Z" fill="#353535"></path><path d="M42.8438 40.75H40.9375C40.6847 40.75 40.4423 40.6496 40.2635 40.4708C40.0848 40.2921 39.9844 40.0497 39.9844 39.7969C39.9844 39.5441 40.0848 39.3017 40.2635 39.1229C40.4423 38.9442 40.6847 38.8438 40.9375 38.8438H42.8438C43.0965 38.8438 43.339 38.9442 43.5177 39.1229C43.6965 39.3017 43.7969 39.5441 43.7969 39.7969C43.7969 40.0497 43.6965 40.2921 43.5177 40.4708C43.339 40.6496 43.0965 40.75 42.8438 40.75Z" fill="#353535"></path><path d="M5.67188 50.2812C5.41909 50.2812 5.17666 50.1808 4.99791 50.0021C4.81917 49.8233 4.71875 49.5809 4.71875 49.3281V42.6562C4.71875 42.4035 4.81917 42.161 4.99791 41.9823C5.17666 41.8035 5.41909 41.7031 5.67188 41.7031C5.92466 41.7031 6.16709 41.8035 6.34584 41.9823C6.52458 42.161 6.625 42.4035 6.625 42.6562V49.3281C6.625 49.5809 6.52458 49.8233 6.34584 50.0021C6.16709 50.1808 5.92466 50.2812 5.67188 50.2812Z" fill="#353535"></path><path d="M5.67188 45.5156C4.40841 45.5141 3.19712 45.0116 2.30371 44.1182C1.41031 43.2248 0.907738 42.0135 0.90625 40.75C0.90625 38.1057 2.98797 35.0312 5.67188 35.0312C8.35578 35.0312 10.4375 38.1057 10.4375 40.75C10.436 42.0135 9.93344 43.2248 9.04004 44.1182C8.14663 45.0116 6.93534 45.5141 5.67188 45.5156ZM5.67188 36.9375C4.19892 36.9375 2.8125 39.0853 2.8125 40.75C2.8125 41.5084 3.11375 42.2356 3.64999 42.7719C4.18623 43.3081 4.91352 43.6094 5.67188 43.6094C6.43023 43.6094 7.15752 43.3081 7.69376 42.7719C8.23 42.2356 8.53125 41.5084 8.53125 40.75C8.53125 39.0853 7.14483 36.9375 5.67188 36.9375Z" fill="#353535"></path><path d="M53.3281 50.2812C53.0753 50.2812 52.8329 50.1808 52.6542 50.0021C52.4754 49.8233 52.375 49.5809 52.375 49.3281V42.6562C52.375 42.4035 52.4754 42.161 52.6542 41.9823C52.8329 41.8035 53.0753 41.7031 53.3281 41.7031C53.5809 41.7031 53.8233 41.8035 54.0021 41.9823C54.1808 42.161 54.2812 42.4035 54.2812 42.6562V49.3281C54.2812 49.5809 54.1808 49.8233 54.0021 50.0021C53.8233 50.1808 53.5809 50.2812 53.3281 50.2812Z" fill="#353535"></path><path d="M53.3281 45.5156C52.0647 45.5141 50.8534 45.0116 49.96 44.1182C49.0666 43.2248 48.564 42.0135 48.5625 40.75C48.5625 38.1057 50.6442 35.0312 53.3281 35.0312C56.012 35.0312 58.0938 38.1057 58.0938 40.75C58.0923 42.0135 57.5897 43.2248 56.6963 44.1182C55.8029 45.0116 54.5916 45.5141 53.3281 45.5156ZM53.3281 36.9375C51.8552 36.9375 50.4688 39.0853 50.4688 40.75C50.4688 41.5084 50.77 42.2356 51.3062 42.7719C51.8425 43.3081 52.5698 43.6094 53.3281 43.6094C54.0865 43.6094 54.8138 43.3081 55.35 42.7719C55.8862 42.2356 56.1875 41.5084 56.1875 40.75C56.1875 39.0853 54.8011 36.9375 53.3281 36.9375Z" fill="#353535"></path><path d="M56.1875 50.2812H2.8125C2.55972 50.2812 2.31728 50.1808 2.13854 50.0021C1.95979 49.8233 1.85938 49.5809 1.85938 49.3281C1.85938 49.0753 1.95979 48.8329 2.13854 48.6542C2.31728 48.4754 2.55972 48.375 2.8125 48.375H56.1875C56.4403 48.375 56.6827 48.4754 56.8615 48.6542C57.0402 48.8329 57.1406 49.0753 57.1406 49.3281C57.1406 49.5809 57.0402 49.8233 56.8615 50.0021C56.6827 50.1808 56.4403 50.2812 56.1875 50.2812Z" fill="#353535"></path></svg>