<svg width="53" height="45" viewBox="0 0 53 45" fill="none" xmlns="http://www.w3.org/2000/svg"><path d="M51.6101 17.8888C51.7645 18.0105 51.9522 18.073 52.1416 18.073C52.2691 18.073 52.3972 18.0446 52.5162 17.9869C52.8121 17.8434 53 17.5434 53 17.2145V12.6357C53 12.3726 52.8795 12.1241 52.6728 11.9613L38.6961 0.949325C37.7159 0.176991 36.3467 0.177105 35.3665 0.949325L30.1058 5.09409V3.47799C30.1058 3.00385 29.7214 2.61945 29.2473 2.61945H25.5842C25.1101 2.61945 24.7257 3.00385 24.7257 3.47799V9.33305L21.3898 11.9613C21.1832 12.1241 21.0626 12.3726 21.0626 12.6357V17.2145C21.0626 17.5434 21.2505 17.8434 21.5464 17.9869C21.8422 18.1305 22.1942 18.0925 22.4525 17.8889L22.8942 17.541V25.9072L14.8861 19.5979C13.9059 18.8255 12.5367 18.8255 11.5565 19.5979L0.327158 28.4451C0.120538 28.6078 0 28.8564 0 29.1195V33.6983C0 34.0272 0.187847 34.3272 0.483754 34.4707C0.602803 34.5285 0.730896 34.5568 0.858417 34.5568C1.04764 34.5568 1.23548 34.4943 1.3899 34.3726L1.83153 34.0246V42.9132H0.858531C0.384393 42.9132 0 43.2976 0 43.7717C0 44.2459 0.384393 44.6303 0.858531 44.6303H52.1415C52.6156 44.6303 53 44.2459 53 43.7717C53 43.2976 52.6156 42.9132 52.1415 42.9132H51.1685V17.5408L51.6101 17.8888ZM26.4428 4.33652H28.3888V6.44702L26.4428 7.98024V4.33652ZM22.7797 13.0522L36.4292 2.29814C36.7837 2.01883 37.279 2.01883 37.6335 2.29814L51.2829 13.0522V15.445L37.5627 4.63517C37.4069 4.51234 37.2192 4.45099 37.0313 4.45099C36.8435 4.45099 36.6559 4.51234 36.4999 4.63517L22.7797 15.445V13.0522ZM1.71706 29.536L12.6193 20.9465C12.9738 20.6672 13.4691 20.6672 13.8236 20.9465L22.8942 28.093V30.4859L13.7528 23.2835C13.4411 23.0378 13.0017 23.0378 12.6901 23.2835L1.71706 31.9289V29.536ZM3.5486 32.6718L13.2214 25.0509L22.8942 32.6719V42.9133H19.1166V32.7826C19.1166 32.3085 18.7322 31.9241 18.2581 31.9241H8.18466C7.71053 31.9241 7.32613 32.3085 7.32613 32.7826V42.9133H3.5486V32.6718ZM9.0432 37.3041H17.3996V39.2501H9.0432V37.3041ZM17.3996 35.5871H9.0432V33.6411H17.3996V35.5871ZM9.0432 40.9672H17.3996V42.9132H9.0432V40.9672ZM33.8834 36.5057C33.8644 36.5044 33.8452 36.5028 33.8261 36.5028C33.6006 36.5028 33.3786 36.5944 33.2194 36.7547C33.0592 36.9138 32.9676 37.1358 32.9676 37.3614C32.9676 37.5869 33.0592 37.8089 33.2194 37.968C33.3786 38.1283 33.6006 38.2199 33.8261 38.2199C33.8452 38.2199 33.8644 38.2183 33.8834 38.217V42.9132H30.1058V31.8095H33.8834V36.5057ZM49.4514 42.9132H35.6004V30.951C35.6004 30.4768 35.216 30.0925 34.7419 30.0925H29.2473C28.7732 30.0925 28.3888 30.4768 28.3888 30.951V42.9132H24.6112V16.188L37.0313 6.40249L49.4514 16.188V42.9132Z" fill="#353535"></path><path d="M39.3214 39.136H44.816C45.2902 39.136 45.6746 38.7516 45.6746 38.2774V30.9513C45.6746 30.4772 45.2902 30.0928 44.816 30.0928H39.3214C38.8473 30.0928 38.4629 30.4772 38.4629 30.9513V38.2774C38.4629 38.7516 38.8473 39.136 39.3214 39.136ZM40.18 37.4189V34.5571H43.9575V37.4189H40.18ZM43.9575 31.8098V32.8401H40.18V31.8098H43.9575Z" fill="#353535"></path><path d="M39.3214 26.3147H44.816C45.2902 26.3147 45.6746 25.9303 45.6746 25.4562V18.13C45.6746 17.6559 45.2902 17.2715 44.816 17.2715H39.3214C38.8473 17.2715 38.4629 17.6559 38.4629 18.13V25.4562C38.4629 25.9303 38.8473 26.3147 39.3214 26.3147ZM40.18 24.5976V21.7358H43.9575V24.5976H40.18ZM43.9575 18.9885V20.0188H40.18V18.9885H43.9575Z" fill="#353535"></path><path d="M34.7418 17.2715H29.2472C28.7731 17.2715 28.3887 17.6559 28.3887 18.13V25.4562C28.3887 25.9303 28.7731 26.3147 29.2472 26.3147H34.7418C35.2159 26.3147 35.6003 25.9303 35.6003 25.4562V18.13C35.6003 17.6559 35.2159 17.2715 34.7418 17.2715ZM33.8833 18.9885V20.0188H30.1057V18.9885H33.8833ZM30.1057 24.5976V21.7358H33.8833V24.5976H30.1057Z" fill="#353535"></path></svg>