<svg width="49" height="49" viewBox="0 0 49 49" fill="none" xmlns="http://www.w3.org/2000/svg"><path d="M43.9284 13.6377H5.07257C4.47288 13.6377 4.10851 12.9786 4.421 12.47L9.20587 4.68916C9.34378 4.46143 9.59175 4.32227 9.85744 4.32227H39.1423C39.4093 4.32353 39.656 4.4627 39.7939 4.68916L44.5787 12.4725C44.8874 12.9786 44.5243 13.6326 43.9284 13.6377ZM6.43895 12.1056H42.5595L38.7147 5.85312H10.2851L6.43895 12.1056Z" fill="#353535"></path><path d="M12.5763 13.5892C12.1803 13.4424 11.9778 13.0021 12.1233 12.6061L14.994 4.82282C15.1268 4.42177 15.5595 4.20289 15.9606 4.33573C16.4047 4.48249 16.597 4.98603 16.4287 5.35166L13.558 13.135C13.4138 13.5322 12.9723 13.7372 12.5763 13.5892Z" fill="#353535"></path><path d="M20.6158 13.6372C20.5841 13.6372 20.5512 13.636 20.5196 13.6309C20.0996 13.5816 19.7997 13.2008 19.8491 12.7807C19.8491 12.7795 19.8491 12.7782 19.8491 12.7769L20.8055 4.9936C20.8587 4.57357 21.242 4.27625 21.6608 4.32939C22.0808 4.38253 22.3781 4.76587 22.325 5.18464L21.3685 12.9692C21.3205 13.3488 20.9978 13.6347 20.6158 13.6372Z" fill="#353535"></path><path d="M28.3838 13.6368C27.9979 13.6368 27.6728 13.3496 27.6247 12.9663L26.6683 5.18171C26.6151 4.76168 26.9124 4.3796 27.3325 4.32646C27.7525 4.27332 28.1346 4.57064 28.1877 4.99067L29.1442 12.774C29.1961 13.1991 28.8899 13.6153 28.3838 13.6368Z" fill="#353535"></path><path d="M35.4378 13.1359L32.5671 5.35255C32.4065 4.96161 32.595 4.51374 32.9859 4.35433C33.3528 4.20377 33.8197 4.34547 34.0031 4.82244L36.8738 12.6058C37.0205 13.0018 36.8181 13.442 36.4221 13.5901C36.0122 13.7368 35.582 13.5243 35.4378 13.1359Z" fill="#353535"></path><path d="M8.9574 19.032C6.39037 19.0282 4.31044 16.947 4.30664 14.38V12.8719C4.30664 12.4493 4.6495 12.1064 5.07207 12.1064H12.844C13.2666 12.1064 13.6094 12.4493 13.6094 12.8719V14.38C13.6069 16.9482 11.5257 19.0295 8.9574 19.032ZM5.8375 13.6373V14.38C5.80713 16.1031 7.17984 17.5252 8.903 17.5555C10.721 17.5872 12.138 16.0639 12.0786 14.3812V13.6386L5.8375 13.6373Z" fill="#353535"></path><path d="M16.7289 19.032C14.1606 19.0282 12.0807 16.9482 12.0781 14.38V12.8719C12.0781 12.4493 12.421 12.1064 12.8436 12.1064H20.6155C21.0381 12.1064 21.3809 12.4493 21.3809 12.8719V14.38C21.3771 16.947 19.2972 19.0282 16.7289 19.032ZM13.609 13.6373V14.38C13.5786 16.1031 14.9513 17.5252 16.6745 17.5555C18.3976 17.5859 19.8197 16.2132 19.8501 14.49C19.8513 14.4533 19.8513 14.4166 19.8501 14.3812V13.6386L13.609 13.6373Z" fill="#353535"></path><path d="M24.5004 19.032C21.9321 19.0282 19.8521 16.9482 19.8496 14.38V12.8719C19.8496 12.4493 20.1925 12.1064 20.615 12.1064H28.3857C28.8083 12.1064 29.1511 12.4493 29.1511 12.8719V14.38C29.1486 16.947 27.0687 19.0282 24.5004 19.032ZM21.3805 13.6373V14.38C21.3792 16.1031 22.7747 17.5011 24.4978 17.5024C26.221 17.5037 27.619 16.1082 27.6203 14.385C27.6203 14.3837 27.6203 14.3825 27.6203 14.3812V13.6386L21.3805 13.6373Z" fill="#353535"></path><path d="M32.2712 19.032C29.7029 19.0282 27.6217 16.9482 27.6191 14.38V12.8719C27.6191 12.4493 27.962 12.1064 28.3846 12.1064H36.1565C36.5791 12.1064 36.9219 12.4493 36.9219 12.8719V14.38C36.9194 16.947 34.8395 19.0282 32.2712 19.032ZM29.15 13.6373V14.38C29.1196 16.1031 30.4923 17.5252 32.2155 17.5555C34.0348 17.5872 35.4505 16.0614 35.3911 14.3812V13.6386L29.15 13.6373Z" fill="#353535"></path><path d="M40.0433 19.032C37.475 19.0282 35.3951 16.9482 35.3926 14.38V12.8719C35.3926 12.4493 35.7354 12.1064 36.158 12.1064H43.9287C44.3512 12.1064 44.6941 12.4493 44.6941 12.8719V14.38C44.6903 16.947 42.6104 19.0269 40.0433 19.032ZM36.9234 13.6373V14.38C36.8931 16.1031 38.2658 17.5252 39.9889 17.5555C41.8083 17.5872 43.224 16.0614 43.1645 14.3812V13.6386L36.9234 13.6373Z" fill="#353535"></path><path d="M8.95683 40.4122C8.53427 40.4122 8.19141 40.0694 8.19141 39.6468V18.2654C8.19141 17.8429 8.53427 17.5 8.95683 17.5C9.3794 17.5 9.72226 17.8429 9.72226 18.2654V39.6468C9.72226 40.0694 9.3794 40.4122 8.95683 40.4122Z" fill="#353535"></path><path d="M40.0428 40.4122C39.6202 40.4122 39.2773 40.0694 39.2773 39.6468V18.2654C39.2773 17.8429 39.6202 17.5 40.0428 17.5C40.4653 17.5 40.8082 17.8429 40.8082 18.2654V39.6468C40.8082 40.0694 40.4666 40.4122 40.0428 40.4122Z" fill="#353535"></path><path d="M42.2578 44.6786C41.8353 44.6786 41.4924 44.3357 41.4924 43.9131V40.4137H7.50742V43.9131C7.50742 44.3357 7.16456 44.6786 6.74199 44.6786C6.31942 44.6786 5.97656 44.3357 5.97656 43.9131V39.6482C5.97656 39.2257 6.31942 38.8828 6.74199 38.8828H42.2591C42.6816 38.8828 43.0245 39.2257 43.0245 39.6482V43.9131C43.0245 44.3357 42.6817 44.6786 42.2578 44.6786Z" fill="#353535"></path><path d="M44.1186 44.6783H4.88066C4.4581 44.6783 4.11523 44.3355 4.11523 43.9129C4.11523 43.4903 4.4581 43.1475 4.88066 43.1475H44.1186C44.5412 43.1475 44.884 43.4903 44.884 43.9129C44.884 44.3355 44.5412 44.6783 44.1186 44.6783Z" fill="#353535"></path><path d="M22.6326 40.4119C22.21 40.4119 21.8671 40.069 21.8671 39.6465V25.2564H13.4449V39.6465C13.4449 40.069 13.1021 40.4119 12.6795 40.4119C12.2569 40.4119 11.9141 40.069 11.9141 39.6465V24.491C11.9141 24.0684 12.2569 23.7256 12.6795 23.7256H22.6326C23.0551 23.7256 23.398 24.0684 23.398 24.491V39.6465C23.398 40.069 23.0551 40.4119 22.6326 40.4119Z" fill="#353535"></path><path d="M15.4549 33.6699C15.0323 33.6699 14.6895 33.3271 14.6895 32.9045V31.2332C14.6895 30.8106 15.0323 30.4678 15.4549 30.4678C15.8774 30.4678 16.2203 30.8106 16.2203 31.2332V32.9045C16.2203 33.3271 15.8774 33.6699 15.4549 33.6699Z" fill="#353535"></path><path d="M36.3674 31.9985H26.3182C25.8956 31.9985 25.5527 31.6557 25.5527 31.2331V24.491C25.5527 24.0684 25.8956 23.7256 26.3182 23.7256H36.3674C36.79 23.7256 37.1328 24.0684 37.1328 24.491V31.2331C37.1328 31.6557 36.79 31.9985 36.3674 31.9985ZM27.0836 30.4677H35.602V25.2564H27.0849V30.4677H27.0836Z" fill="#353535"></path><path d="M40.0426 36.5494H22.6326C22.21 36.5494 21.8672 36.2065 21.8672 35.784C21.8672 35.3614 22.21 35.0186 22.6326 35.0186H40.0426C40.4652 35.0186 40.808 35.3614 40.808 35.784C40.808 36.2065 40.4664 36.5494 40.0426 36.5494Z" fill="#353535"></path><path d="M36.3674 28.6285H26.3182C25.8956 28.6285 25.5527 28.2857 25.5527 27.8631C25.5527 27.4405 25.8956 27.0977 26.3182 27.0977H36.3674C36.79 27.0977 37.1328 27.4405 37.1328 27.8631C37.1328 28.2857 36.79 28.6285 36.3674 28.6285Z" fill="#353535"></path><path d="M31.3377 31.9985C30.9151 31.9985 30.5723 31.6557 30.5723 31.2331V24.491C30.5723 24.0684 30.9151 23.7256 31.3377 23.7256C31.7603 23.7256 32.1031 24.0684 32.1031 24.491V31.2331C32.1031 31.6557 31.7603 31.9985 31.3377 31.9985Z" fill="#353535"></path></svg>